<?xml version="1.0" encoding="utf-8"?>
<!-- Generator: Adobe Illustrator 21.1.0, SVG Export Plug-In . SVG Version: 6.00 Build 0)  -->
<svg version="1.1" id="レイヤー_1" xmlns="http://www.w3.org/2000/svg" xmlns:xlink="http://www.w3.org/1999/xlink" x="0px"
	 y="0px" viewBox="0 0 226.6 83.1" style="enable-background:new 0 0 226.6 83.1;" xml:space="preserve">
<style type="text/css">
	.st0{fill:url(#SVGID_1_);}
	.st1{fill:url(#SVGID_2_);}
	.st2{fill:url(#SVGID_3_);}
	.st3{fill:url(#SVGID_4_);}
	.st4{fill:url(#SVGID_5_);}
	.st5{fill:url(#SVGID_6_);}
	.st6{fill:url(#SVGID_7_);}
	.st7{fill:url(#SVGID_8_);}
	.st8{fill:url(#SVGID_9_);}
	.st9{fill:url(#SVGID_10_);}
	.st10{fill:#2B196F;}
	.st11{fill:url(#SVGID_11_);}
	.st12{fill:url(#SVGID_12_);}
	.st13{fill:url(#SVGID_13_);}
	.st14{fill:url(#SVGID_14_);}
	.st15{fill:url(#SVGID_15_);}
	.st16{fill:url(#SVGID_16_);}
	.st17{fill:url(#SVGID_17_);}
	.st18{fill:url(#SVGID_18_);}
	.st19{fill:url(#SVGID_19_);}
	.st20{fill:url(#SVGID_20_);}
	.st21{fill:url(#SVGID_21_);}
	.st22{fill:url(#SVGID_22_);}
	.st23{fill:url(#SVGID_23_);}
	.st24{fill:url(#SVGID_24_);}
	.st25{fill:url(#SVGID_25_);}
	.st26{fill:url(#SVGID_26_);}
	.st27{fill:url(#SVGID_27_);}
	.st28{fill:url(#SVGID_28_);}
	.st29{fill:#FDD000;}
	.st30{fill:#D1AC00;}
	.st31{fill:#898B70;}
	.st32{fill:#334E9F;}
	.st33{fill:url(#SVGID_29_);}
	.st34{fill:url(#SVGID_30_);}
	.st35{fill:url(#SVGID_31_);}
	.st36{fill:url(#SVGID_32_);}
	.st37{fill:url(#SVGID_33_);}
</style>
<g>
	<g>
		<g>
			<g>
				
					<linearGradient id="SVGID_1_" gradientUnits="userSpaceOnUse" x1="-3388.3325" y1="-3647.1606" x2="-3380.051" y2="-3610.5803" gradientTransform="matrix(0.7377 -2.820000e-02 2.820000e-02 0.7377 2605.9536 2621.2012)">
					<stop  offset="0" style="stop-color:#182862"/>
					<stop  offset="1" style="stop-color:#0068B4"/>
				</linearGradient>
				<polygon class="st0" points="10.1,47.9 13.2,44.7 3.1,27.6 0,30.8 				"/>
				
					<linearGradient id="SVGID_2_" gradientUnits="userSpaceOnUse" x1="-3367.0344" y1="-3613.9314" x2="-3368.7493" y2="-3701.3794" gradientTransform="matrix(0.7382 0 0 0.7382 2499.8159 2748.4028)">
					<stop  offset="0" style="stop-color:#182862"/>
					<stop  offset="1" style="stop-color:#0068B4"/>
				</linearGradient>
				<polygon class="st1" points="10.1,47.9 13.2,44.7 17.1,42.9 13.9,46.3 				"/>
				
					<linearGradient id="SVGID_3_" gradientUnits="userSpaceOnUse" x1="-3188.8325" y1="-3702.071" x2="-3193.3489" y2="-3686.0889" gradientTransform="matrix(0.7382 0 0 0.7382 2506.521 2747.7573)">
					<stop  offset="0" style="stop-color:#182862"/>
					<stop  offset="1" style="stop-color:#0068B4"/>
				</linearGradient>
				<polygon class="st2" points="149.7,19.7 153.5,17.6 153.8,15.3 150.1,17.4 				"/>
				
					<linearGradient id="SVGID_4_" gradientUnits="userSpaceOnUse" x1="-3235.2534" y1="-3721.0549" x2="-3244.8491" y2="-3697.7512" gradientTransform="matrix(0.7382 0 0 0.7382 2509.3042 2744.5117)">
					<stop  offset="0" style="stop-color:#182862"/>
					<stop  offset="1" style="stop-color:#0068B4"/>
				</linearGradient>
				<polygon class="st3" points="106.3,19.9 110.2,17.8 125.6,0 121.9,2 				"/>
				
					<linearGradient id="SVGID_5_" gradientUnits="userSpaceOnUse" x1="-3115.0667" y1="-3695.2422" x2="-3122.6267" y2="-3674.2803" gradientTransform="matrix(0.7382 0 0 0.7382 2508.6274 2748.5571)">
					<stop  offset="0" style="stop-color:#182862"/>
					<stop  offset="1" style="stop-color:#0068B4"/>
				</linearGradient>
				<polygon class="st4" points="205.1,26.4 208.8,24.3 207.2,31.2 203.4,33.2 				"/>
				
					<linearGradient id="SVGID_6_" gradientUnits="userSpaceOnUse" x1="-3125.02" y1="-3618.8435" x2="-3126.7351" y2="-3706.3066" gradientTransform="matrix(0.7382 0 0 0.7382 2508.0737 2748.7417)">
					<stop  offset="0" style="stop-color:#182862"/>
					<stop  offset="1" style="stop-color:#0068B4"/>
				</linearGradient>
				<polygon class="st5" points="205.7,81.5 209.6,79.6 196.6,75.4 192.9,77.4 				"/>
				
					<linearGradient id="SVGID_7_" gradientUnits="userSpaceOnUse" x1="-3154.7258" y1="-3673.6814" x2="-3128.6289" y2="-3698.0615" gradientTransform="matrix(0.7382 0 0 0.7382 2508.6274 2748.5571)">
					<stop  offset="0" style="stop-color:#182862"/>
					<stop  offset="1" style="stop-color:#0068B4"/>
				</linearGradient>
				<polygon class="st6" points="184.5,33.3 188.3,31.3 185.2,30.6 181.4,32.6 				"/>
				
					<linearGradient id="SVGID_8_" gradientUnits="userSpaceOnUse" x1="-3247.5906" y1="-3615.6521" x2="-3249.3074" y2="-3703.2043" gradientTransform="matrix(0.7382 0 0 0.7382 2504.522 2746.9873)">
					<stop  offset="0" style="stop-color:#182862"/>
					<stop  offset="1" style="stop-color:#0068B4"/>
				</linearGradient>
				<polygon class="st7" points="106.1,24.7 109.4,22.9 106.7,25.1 102.8,27.2 				"/>
				
					<linearGradient id="SVGID_9_" gradientUnits="userSpaceOnUse" x1="-3134.0315" y1="-3618.6272" x2="-3135.748" y2="-3706.1646" gradientTransform="matrix(0.7382 0 0 0.7382 2508.3042 2748.6489)">
					<stop  offset="0" style="stop-color:#182862"/>
					<stop  offset="1" style="stop-color:#0068B4"/>
				</linearGradient>
				<polygon class="st8" points="192.7,72.4 196.5,70.4 196.6,75.4 192.9,77.4 				"/>
				
					<linearGradient id="SVGID_10_" gradientUnits="userSpaceOnUse" x1="-3144.3516" y1="-3703.3901" x2="-3153.9746" y2="-3687.5803" gradientTransform="matrix(0.7382 6.200000e-03 -6.200000e-03 0.7382 2484.3611 2774.4807)">
					<stop  offset="0" style="stop-color:#182862"/>
					<stop  offset="1" style="stop-color:#0068B4"/>
				</linearGradient>
				<polygon class="st9" points="181.4,32.6 185.2,30.6 185,19 181.2,21.2 				"/>
				<polygon class="st10" points="180.3,70.6 184.1,68.6 188.3,31.3 184.5,33.3 				"/>
				
					<linearGradient id="SVGID_11_" gradientUnits="userSpaceOnUse" x1="-3142.1155" y1="-3618.5193" x2="-3143.8296" y2="-3705.9336" gradientTransform="matrix(0.7382 0 0 0.7382 2508.0737 2748.7417)">
					<stop  offset="0" style="stop-color:#182862"/>
					<stop  offset="1" style="stop-color:#0068B4"/>
				</linearGradient>
				<polygon class="st11" points="192.7,72.4 196.5,70.4 184.1,68.6 180.3,70.6 				"/>
				
					<linearGradient id="SVGID_12_" gradientUnits="userSpaceOnUse" x1="-3170.4055" y1="-3620.5225" x2="-3173.8403" y2="-3703.6343" gradientTransform="matrix(0.7382 0 0 0.7382 2505.4907 2745.7886)">
					<stop  offset="0" style="stop-color:#182862"/>
					<stop  offset="1" style="stop-color:#0068B4"/>
				</linearGradient>
				<polygon class="st12" points="172.4,72.1 176.2,70.1 157.5,66.7 153.7,68.8 				"/>
				
					<linearGradient id="SVGID_13_" gradientUnits="userSpaceOnUse" x1="-3183.8555" y1="-3616.2639" x2="-3185.5713" y2="-3703.7607" gradientTransform="matrix(0.7382 0 0 0.7382 2505.6738 2745.4189)">
					<stop  offset="0" style="stop-color:#182862"/>
					<stop  offset="1" style="stop-color:#0068B4"/>
				</linearGradient>
				<polygon class="st13" points="153.7,68.8 157.5,66.7 156.5,58.4 152.7,60.5 				"/>
				
					<linearGradient id="SVGID_14_" gradientUnits="userSpaceOnUse" x1="-3189.9729" y1="-3612.2205" x2="-3191.9321" y2="-3712.1255" gradientTransform="matrix(0.7382 0 0 0.7382 2505.6138 2745.4189)">
					<stop  offset="0" style="stop-color:#182862"/>
					<stop  offset="1" style="stop-color:#0068B4"/>
				</linearGradient>
				<polygon class="st14" points="150.6,66.9 155,64.8 149.7,55.5 145.9,57.7 				"/>
				
					<linearGradient id="SVGID_15_" gradientUnits="userSpaceOnUse" x1="-3205.9465" y1="-3618.8535" x2="-3209.3806" y2="-3701.9475" gradientTransform="matrix(0.7382 0 0 0.7382 2505.7358 2745.2964)">
					<stop  offset="0" style="stop-color:#182862"/>
					<stop  offset="1" style="stop-color:#0068B4"/>
				</linearGradient>
				<polygon class="st15" points="144.9,63.5 148.7,61.5 132.3,58.9 128.5,60.8 				"/>
				
					<linearGradient id="SVGID_16_" gradientUnits="userSpaceOnUse" x1="-3208.5176" y1="-3661.8831" x2="-3240.8867" y2="-3689.0439" gradientTransform="matrix(0.7382 0 0 0.7382 2505.7358 2745.2964)">
					<stop  offset="0.25" style="stop-color:#182862"/>
					<stop  offset="0.65" style="stop-color:#0068B4"/>
				</linearGradient>
				<polygon class="st16" points="128.5,60.8 132.3,58.9 139,17.5 135.2,19.7 				"/>
				
					<linearGradient id="SVGID_17_" gradientUnits="userSpaceOnUse" x1="-3257.4858" y1="-3685.5063" x2="-3215.1072" y2="-3714.5564" gradientTransform="matrix(0.7382 0 0 0.7382 2509.3042 2744.5581)">
					<stop  offset="0" style="stop-color:#182862"/>
					<stop  offset="1" style="stop-color:#0068B4"/>
				</linearGradient>
				<polygon class="st17" points="109.1,23.1 112.9,21.1 110.2,17.8 106.3,19.9 				"/>
				
					<linearGradient id="SVGID_18_" gradientUnits="userSpaceOnUse" x1="-3244.7283" y1="-3664.9473" x2="-3246.4451" y2="-3752.49" gradientTransform="matrix(0.7373 3.540000e-02 -3.540000e-02 0.7373 2366.0278 2894.6699)">
					<stop  offset="0" style="stop-color:#182862"/>
					<stop  offset="1" style="stop-color:#0068B4"/>
				</linearGradient>
				<polygon class="st18" points="86.7,56.6 90.5,54.6 121,69.8 117.2,71.8 				"/>
				
					<linearGradient id="SVGID_19_" gradientUnits="userSpaceOnUse" x1="-3268.8704" y1="-3705.1863" x2="-3275.0923" y2="-3691.0146" gradientTransform="matrix(0.7382 0 0 0.7382 2505.2754 2746.9873)">
					<stop  offset="0" style="stop-color:#182862"/>
					<stop  offset="1" style="stop-color:#0068B4"/>
				</linearGradient>
				<polygon class="st19" points="84.9,24.2 88.8,22.1 93.4,13.3 89.6,15.5 				"/>
				
					<linearGradient id="SVGID_20_" gradientUnits="userSpaceOnUse" x1="-3279.6902" y1="-3629.8506" x2="-3281.3657" y2="-3715.2949" gradientTransform="matrix(0.7381 1.150000e-02 -1.150000e-02 0.7381 2460.2947 2792.7305)">
					<stop  offset="0" style="stop-color:#182862"/>
					<stop  offset="1" style="stop-color:#0068B4"/>
				</linearGradient>
				<polygon class="st20" points="72,71.9 75.9,69.9 90.5,67.8 86.6,69.8 				"/>
				
					<linearGradient id="SVGID_21_" gradientUnits="userSpaceOnUse" x1="-3283.8625" y1="-3664.8613" x2="-3307.5647" y2="-3659.7085" gradientTransform="matrix(0.7381 1.150000e-02 -1.150000e-02 0.7381 2460.2947 2792.7305)">
					<stop  offset="0" style="stop-color:#182862"/>
					<stop  offset="1" style="stop-color:#0068B4"/>
				</linearGradient>
				<polygon class="st21" points="72,71.9 75.9,69.9 72.2,30.6 68.5,32.6 				"/>
				
					<linearGradient id="SVGID_22_" gradientUnits="userSpaceOnUse" x1="-3304.7656" y1="-3696.752" x2="-3304.075" y2="-3672.9084" gradientTransform="matrix(0.7382 0 0 0.7382 2505.8589 2746.6343)">
					<stop  offset="0" style="stop-color:#182862"/>
					<stop  offset="1" style="stop-color:#0068B4"/>
				</linearGradient>
				<polygon class="st22" points="64.9,33.5 68.7,31.5 68.2,20.3 64.4,22.4 				"/>
				
					<linearGradient id="SVGID_23_" gradientUnits="userSpaceOnUse" x1="-3343.5212" y1="-3573.1189" x2="-3345.2173" y2="-3659.6082" gradientTransform="matrix(0.7377 -2.820000e-02 2.820000e-02 0.7377 2607.0771 2620.8472)">
					<stop  offset="0" style="stop-color:#182862"/>
					<stop  offset="1" style="stop-color:#0068B4"/>
				</linearGradient>
				<polygon class="st23" points="34,80.6 30.2,83.1 45.6,78.2 49.5,75.7 				"/>
				
					<linearGradient id="SVGID_24_" gradientUnits="userSpaceOnUse" x1="-3361.3071" y1="-3593.136" x2="-3382.5886" y2="-3652.5195" gradientTransform="matrix(0.7377 -2.820000e-02 2.820000e-02 0.7377 2605.7236 2621.3384)">
					<stop  offset="0" style="stop-color:#182862"/>
					<stop  offset="1" style="stop-color:#0068B4"/>
				</linearGradient>
				<polygon class="st24" points="17.1,42.9 13.9,46.3 30.2,83.1 34,80.6 				"/>
				
					<linearGradient id="SVGID_25_" gradientUnits="userSpaceOnUse" x1="-3347.5327" y1="-3459.259" x2="-3364.52" y2="-3524.7808" gradientTransform="matrix(0.7293 -0.1141 0.1141 0.7293 2898.7749 2213.7676)">
					<stop  offset="0" style="stop-color:#182862"/>
					<stop  offset="1" style="stop-color:#0068B4"/>
				</linearGradient>
				<path class="st25" d="M58.4,68.1c-4-1.2-7.2-3.9-9-7.8c-0.9-2-1.8-6.4-1.8-8.6c-0.9,1-2.6,2.1-3.9,2.7c0,0,0.8,4.3,1.9,7.4
					c1.1,3,3.6,5.5,3.6,5.5c1.6,1.6,3.6,2.8,5.9,3.4c4.3,1.2,9.2,0.4,13.4-2.2c1.1-0.7,2.6-1.8,3.5-2.7
					C67.9,68.3,62.6,69.3,58.4,68.1z"/>
				
					<linearGradient id="SVGID_26_" gradientUnits="userSpaceOnUse" x1="-3300.4285" y1="-3614.48" x2="-3302.1453" y2="-3702.0269" gradientTransform="matrix(0.7382 0 0 0.7382 2505.8589 2746.6343)">
					<stop  offset="0" style="stop-color:#182862"/>
					<stop  offset="1" style="stop-color:#0068B4"/>
				</linearGradient>
				<polygon class="st26" points="64.9,33.5 68.5,32.6 72.2,30.6 68.7,31.5 				"/>
				<g>
					
						<linearGradient id="SVGID_27_" gradientUnits="userSpaceOnUse" x1="-3141.0259" y1="-3692.1724" x2="-3142.7441" y2="-3779.7935" gradientTransform="matrix(0.7361 5.520000e-02 -5.520000e-02 0.7361 2287.4648 2968.7749)">
						<stop  offset="0" style="stop-color:#182862"/>
						<stop  offset="1" style="stop-color:#0068B4"/>
					</linearGradient>
					<path class="st27" d="M175.1,63.7l0.2,1.8c1.3-0.2,2.7-0.3,3.9-0.7c1.4-0.5,4.4-1.8,5.6-2.8c-0.4,0.2-2.5,1.1-2.9,1.2
						C179.7,63.8,177.3,63.9,175.1,63.7z"/>
				</g>
				<g>
					
						<linearGradient id="SVGID_28_" gradientUnits="userSpaceOnUse" x1="-3334.0295" y1="-3628.5281" x2="-3335.7461" y2="-3716.0623" gradientTransform="matrix(0.8285 -1.470000e-02 1.360000e-02 0.8956 2939.6882 3279.3616)">
						<stop  offset="0" style="stop-color:#182862"/>
						<stop  offset="1" style="stop-color:#0068B4"/>
					</linearGradient>
					<path class="st28" d="M121,55.1l0.1,2.1c3.1-0.5,5.8-1.6,8.4-3.2c1.7-1,3.5-2.5,4-2.9c-0.4,0.3-0.8,0.4-1.2,0.6
						C129.8,53.1,123.3,55,121,55.1z"/>
				</g>
			</g>
			<path class="st29" d="M208.9,24.4l-1.7,6.9l-1.5-7.6L185,19.1l0.2,11.5l3.1,0.7l-0.2,2.1c0,0-0.1,0-0.1-0.1
				c-3.9-2-8.6-2.2-13.1-0.5c-1.5,0.6-2.9,1.3-4.2,2.3l-3.1-19.7h-13.7l-0.4,2.3H139l-1.7,10.1l-1.2-1.5c-3.5-4.3-8.6-6.7-14.2-6.8
				l12.3-6.6l-8.6-12.8l-15.5,17.8l2.7,3.3c-2.4,1-4.5,2.3-6.3,4L93.4,13.4l-4.6,8.9l0.2-8.5l-20.7,6.6l0.5,11.1l3.5-0.9l0.5,5.6
				c-4-1.8-8.9-1.8-13.4,0.1c-1.3,0.6-2.6,1.3-3.7,2.1c0.8-3.4,0.6-6.8-0.7-9.9c-1.6-3.6-4.3-6.5-7.6-8.4c-2.3-1.6-5.1-2.5-8-2.9
				c-7.2-1.3-15.8,0-24.2,3.6c-3.1,1.3-6,2.8-8.7,4.5l-3.3,2.1l2,3.4l6.2,10.5c0,0,1.9,3.2,1.9,3.2l3.4-1.6l0.5-0.2l15.4,34.4
				l1.5,3.3l3.5-1.1l8.3-2.7l3.7-1.2l-1-3.7l-4.4-17c1.3-0.9,2.5-1.9,3.6-3c-0.2,2-0.1,4.1,0.4,6.1c1.2,4.1,3.9,7.4,7.6,9.2
				c4,1.9,9,1.9,13.6,0c2.3-1,4.3-2.4,6.1-4.1l0.6,6.8l14.6-2.1l0-13.1L121,69.7V55.1c1.2-0.1,2.5-0.3,3.7-0.6
				c3.4-0.8,6.2-1.9,8.8-3.5l-1.3,7.8l16.5,2.6l0.9-5.9l4.3,7.9l2.6-5.1l1,8.3l18.7,3.3l-1-6.3c2.6,0.3,5.2,0,7.9-1
				c0.6-0.2,1.2-0.5,1.8-0.8l-0.8,6.7l12.4,1.7l0.1,5.1l12.9,4.1l16.9-50.8L208.9,24.4z M97.2,40l3.9-3.8c-0.2,1.8-0.1,3.6,0.3,5.4
				L97.2,40z M135.8,37.4l-2.7-2.4L136,32l0.9-0.9L135.8,37.4z M39.8,43.5L39.2,44l-0.2-0.7l-2.4-7.8l-0.2-0.5l0.5-0.1
				c1.3-0.2,2.4-0.1,3.4,0.3c0.6,0.3,1.6,0.9,1.8,2.2C42.6,39.8,41.9,41.6,39.8,43.5z M115.6,38.3l-0.5,0.5l-0.3-0.6
				c-1.1-1.9-0.8-4.3,0.7-5.9c1.4-1.6,3.7-2.1,5.6-1.3l0.6,0.2l-0.5,0.5L115.6,38.3z"/>
			<g>
				<path class="st30" d="M113.2,43.3c0.2,0.2,0,0.1,0.3,0.2l1.8-1.1c-0.3-0.2-0.6-0.5-0.8-0.7c-2.6-2.3-1.9-7.6-0.2-10.4
					C109.9,34.7,110.1,40.2,113.2,43.3z"/>
				<g>
					<path class="st30" d="M134.4,45.6c-2.9,2.4-6.2,4-10.6,5c-1,0.2-1.9,0.4-2.8,0.5c-7,0.7-12.8-2.5-15-7.7
						c-0.3-0.6-0.5-1.3-0.6-1.9c-1-4.4-0.2-8.3,2-11.3c0.2-0.3,0.4-0.6,0.7-0.9c-0.1,0.1-0.2,0.2-0.3,0.3c-0.8,0.7-1.6,1.5-2.2,2.4
						c-2.2,3.1-3,6.9-2,11.3c0.2,0.7,0.4,1.3,0.6,1.9c2.2,5.2,8.1,8.4,15,7.7c0.9-0.1,1.9-0.2,2.8-0.5c4.4-1.1,7.7-2.6,10.6-5
						c0.7-0.6,1.4-1.2,2.1-1.9l-0.1-0.1C134.5,45.5,134.5,45.6,134.4,45.6z"/>
					<polygon class="st30" points="93.2,21.5 92.9,21.2 85.4,31.8 85.4,32.5 					"/>
					<polygon class="st30" points="129.5,11.9 125,5.8 123.3,7.8 127.2,13.1 					"/>
					<path class="st30" d="M51.3,30.2c-1.2-2.8-3.3-5.1-6.1-6.6c-2-1.3-4.3-2-6.5-2.2c-6.2-1.1-13.9-0.1-22,3.4
						c-2.9,1.2-5.6,2.6-8.1,4.2l0.3,0.5c1.9-1.1,3.8-2,5.9-2.9c8.1-3.4,15.8-4.5,22-3.4c2.2,0.2,4.5,0.9,6.5,2.2
						c2.8,1.6,4.9,3.8,6.1,6.6c2.2,5,0.3,11.7-4.9,17.3C51,43.5,53.7,35.8,51.3,30.2z"/>
					<path class="st30" d="M77.5,46.7c-0.1-0.3-0.1-0.6-0.2-0.8c-0.7-2.5-2.2-4.6-4.2-5.9c-3.2-2.2-7.7-2.6-12.2-0.7
						c-2.4,1-4.4,2.6-6,4.5c1.2-1.1,2.7-2,4.2-2.6c4.5-1.9,9-1.4,12.2,0.7c2,1.4,3.5,3.4,4.2,5.9c0.1,0.3,0.1,0.6,0.2,0.8
						c0.2,1,0.3,2,0.2,2.9c-0.1,2.9-1.2,5.9-3,8.4c-0.3,0.4-0.6,0.8-0.9,1.1c1-0.9,1.9-1.9,2.7-3c1.8-2.5,2.9-5.5,3-8.4
						C77.8,48.6,77.7,47.7,77.5,46.7z"/>
					<path class="st30" d="M65.2,43c0,0,1.8-1.8,1.8-1.8c-2.3-0.1-3.3,2.1-3.3,2.3C64.1,43.2,64.6,43,65.2,43z"/>
					<path class="st30" d="M69.5,45.6c0.1,0.3,0.2,0.6,0.2,1c0,0.5-0.1,0.9-0.3,1.4c0.4-0.2,3-1.5,2-4.2
						C71.4,43.8,69.4,45.6,69.5,45.6z"/>
					<path class="st30" d="M59,47.1c0-1.1,1.9-3.8,2.5-4.8c-3,1.9-4.3,4.5-4.3,6.6c0,3.5,3.1,6.4,6.8,6.4c1.8,0,5-0.9,7-4.3
						c-1.1,0.7-3.9,2.5-5.3,2.5C62,53.4,59,50.7,59,47.1z"/>
					<polygon class="st30" points="85.1,64.6 86.9,64.3 86.9,48.5 85.1,50.3 					"/>
					<polygon class="st30" points="83.6,34.9 85.4,32.4 84.7,19.5 72.1,23.2 72.1,24.5 82.8,21.3 					"/>
					<g>
						<polygon class="st30" points="94.7,19.4 93.2,21.5 102.1,29.9 103.8,28.1 						"/>
						<path class="st30" d="M108.9,52.4c-2.5-1.6-4.6-3.7-5.9-6.2l-11.9-4.7l-1.7,1.8l11.8,4.7c1.3,2.5,3.4,4.7,5.9,6.2
							c2.5,1.5,5.3,2.4,8.3,2.7v5.8l1.8,0.9v-8.6C114.2,54.8,111.4,53.9,108.9,52.4z"/>
					</g>
					<g>
						<path class="st30" d="M121.9,43.7c2.9-0.7,4.6-2.2,6-3.9c-1.1,0.9-2.4,1.6-4.2,2.1c-1,0.2-2.4,0.5-3.2,0.3l-1.8,1.9
							C119.6,44.1,120.9,43.9,121.9,43.7z"/>
						<path class="st30" d="M117.1,23.9c-2.9,0.7-5.5,2-7.6,3.8c-0.5,0.5-1.1,1-1.5,1.6c2-1.7,4.5-2.9,7.2-3.6
							c6.6-1.6,12.5,0.4,16.1,4.9l1.8-1.9C129.6,24.3,123.8,22.3,117.1,23.9z"/>
					</g>
					<path class="st30" d="M134.6,45.5c0.7-0.5,1.3-1.1,1.9-1.8l-1.5-1.4l-5-4.5c-0.5,0.7-1.1,1.3-1.8,1.9l5,4.5L134.6,45.5z"/>
					<path class="st30" d="M171.1,62.7c-0.4-0.2-0.7-0.3-1.1-0.5c-3.5-1.9-6-5.1-7-9.1c-1.2-5.2,0.6-10.8,4.3-15l-2.9-18.9h-7
						l-0.3,1.8h5.5l2.9,18.9c-3.7,4.2-5.5,9.9-4.2,15c0.9,4,3.4,7.2,6.9,9.1c0.4,0.2,0.7,0.4,1.1,0.5l0,0.3l2.2,0.3L171.1,62.7z"/>
					<polygon class="st30" points="152.9,36.5 154.7,34.6 152.3,21.3 142.5,21.3 142.2,23.1 150.4,23.1 					"/>
					<polygon class="st30" points="154,54.1 154.6,55.4 158.4,45.4 156.6,47.2 					"/>
					<polygon class="st30" points="146.9,44.7 144.9,57.1 146.4,57.4 148.7,42.9 					"/>
					<path class="st30" d="M185.8,38.9c1.1,0.8,2,1.8,2.7,2.9c0.5,0.9,1,1.9,1.2,3c0.9,3.8-0.2,7.8-2.5,11c-0.2,0.3-0.5,0.7-0.8,1
						c1-0.8,1.8-1.8,2.6-2.8c2.4-3.3,3.5-7.3,2.5-11c-0.3-1.1-0.7-2.1-1.2-3c-0.7-1.2-1.6-2.1-2.7-2.9c-3-2.1-7.2-2.7-11.4-1.1
						c-1.8,0.7-3.5,1.7-4.9,3c-0.5,0.5-1,1-1.5,1.5c1.3-1.1,2.9-2.1,4.5-2.7C178.7,36.2,182.9,36.8,185.8,38.9z"/>
					<path class="st30" d="M179.5,39.7c0,0.1,1.8-1.8,1.8-1.8c-2.2,0.1-3.3,1.2-3.2,1.7c-0.1,0.2-0.2,0.4-0.3,0.6
						C178.3,39.9,179.1,39.7,179.5,39.7z"/>
					<path class="st30" d="M183.7,42.5c0.1,0.3,0.1,0.6,0.1,1c0,0.4-0.1,0.8-0.3,1.2c0.3-0.2,3-1,2-4
						C185.6,40.8,183.7,42.5,183.7,42.5z"/>
					<path class="st30" d="M177.7,52c2.5,0.1,5.4-1.5,7.4-4.2c-1.2,0.8-4,2.4-5.6,2.3c-3.7-0.2-6.5-3.1-6.4-6.6c0-1,1.4-3.3,1.9-4.1
						c-1.9,1.4-3.7,4.1-3.7,6.1C171.1,49,174,51.9,177.7,52z"/>
					<polygon class="st30" points="211.3,28.8 210.8,30.9 219.8,32.9 206,74.4 207.2,74.8 221.6,31.1 					"/>
					<polygon class="st30" points="204.9,49.9 206.7,48 202.2,26.6 188.7,23.9 188.6,26.1 200.4,28.4 					"/>
					<polygon class="st30" points="194.3,66.4 195.8,66.6 199.4,46.2 197.5,48.1 					"/>
					<polygon class="st30" points="39.4,53.1 37.4,54.6 42.5,73.7 44.7,73.3 					"/>
					<path class="st30" d="M43.5,43.7c-1.3,1.3-4.1,4-5.7,5l-1-3.1l-2.1-6.9L33.3,34L32,35.7l1.4,4.6l2.1,6.8l1,3.1
						C38.7,48.9,41.9,46.3,43.5,43.7z"/>
				</g>
			</g>
			<g>
				<path class="st31" d="M121.4,31.3c-1.7-0.7-4.2-0.5-5.5,1c-0.3,0.3-0.9,1.2-1.1,1.6c1.3-1,3.6-1.2,5.1-0.7L121.4,31.3z"/>
				<path class="st31" d="M41.9,37.5c-0.2-1-1.2-1.8-1.7-2.1c-0.9-0.4-2.4-0.5-3.5-0.3c0.2,0.7,0.4,1.5,0.5,1.8
					c0.5,0.1,1.2,0.2,1.6,0.4c0.5,0.2,1.3,0.8,1.5,1.8c0.3,1.4,0.2,2.7-0.4,3.7C41.5,41.3,42.3,39.6,41.9,37.5z"/>
			</g>
			<g>
				<path class="st32" d="M226.6,28.6C226.5,28.6,226.5,28.6,226.6,28.6l-17.6-4.3c0,0,0,0-0.1,0c0,0,0,0,0,0.1c0,0-1.4,5.7-1.6,6.5
					c-0.2-0.8-1.5-7.2-1.5-7.2c0,0,0-0.1-0.1-0.1L185.1,19c0,0-0.1,0-0.1,0c0,0,0,0,0,0.1l0.2,11.5c0,0,0,0.1,0.1,0.1
					c0,0,2.9,0.6,3,0.7c0,0.1-0.2,1.6-0.2,1.8c-3.9-2-8.7-2.2-13.2-0.5c-1.4,0.5-2.8,1.3-4.1,2.2c0-0.3-3.1-19.5-3.1-19.5
					c0-0.1,0-0.1-0.1-0.1h-13.7c0,0-0.1,0-0.1,0.1c0,0-0.3,2-0.4,2.2c-0.2,0-14.4,0-14.4,0c0,0-0.1,0-0.1,0.1c0,0-1.5,9.5-1.6,9.9
					c-0.2-0.3-1.1-1.3-1.1-1.3c-3.4-4.2-8.3-6.6-13.9-6.8c0.6-0.3,12-6.4,12-6.4c0,0,0,0,0.1-0.1c0,0,0,0,0,0c0,0,0,0,0-0.1L125.8,0
					c0,0,0,0-0.1,0c0,0-0.1,0-0.1,0l-15.5,17.8c0,0,0,0,0,0.1c0,0,0,0,0,0.1c0,0,2.4,3,2.6,3.2c-2.3,1-4.4,2.3-6.1,3.9
					c-0.1-0.1-13.2-11.7-13.2-11.7c0,0-0.1,0-0.1,0c0,0-0.1,0-0.1,0c0,0-4.1,7.8-4.5,8.5c0-0.8,0.2-8.1,0.2-8.1c0,0,0-0.1,0-0.1
					c0,0-0.1,0-0.1,0l-20.7,6.6c0,0-0.1,0.1-0.1,0.1l0.5,11.1c0,0,0,0.1,0,0.1c0,0,0.1,0,0.1,0c0,0,3.2-0.8,3.4-0.9
					c0,0.2,0.5,5.1,0.5,5.4c-4-1.8-8.9-1.7-13.3,0.2c-1.2,0.5-2.4,1.2-3.5,2c0.3-1.3,0.4-2.6,0.4-3.8c0-2.1-0.4-4.1-1.2-5.9
					c-1.5-3.5-4.2-6.5-7.6-8.4c-2.3-1.5-5.1-2.5-8.1-2.9c-7.2-1.3-15.8,0-24.3,3.6c-3.1,1.3-6,2.8-8.7,4.5l-3.3,2.1
					c0,0-0.1,0.1,0,0.1l8.2,13.9c2,3.3,2,3.3,2,3.3c0,0,3.6-1.8,3.7-1.8c0.1,0.2,16.9,37.6,16.9,37.6c0,0,0.1,0.1,0.1,0.1l15.5-4.9
					c0,0,0.1-0.1,0.1-0.1c0,0,0,0,0,0c0,0-5.4-20.6-5.4-20.7c1.2-0.9,2.3-1.8,3.3-2.8c-0.1,0.6-0.1,1.2-0.1,1.7
					c0,1.4,0.2,2.8,0.6,4.1c1.2,4.2,3.9,7.4,7.7,9.3c4.1,2,9,2,13.6,0c2.2-0.9,4.2-2.3,5.9-4c0,0.4,0.6,6.6,0.6,6.6c0,0,0,0.1,0,0.1
					c0,0,0,0,0.1,0l14.6-2.1c0.1,0,0.1,0,0.1-0.1c0,0,0-12.7,0-13c0.3,0.1,30.4,15,30.4,15c0,0,0.1,0,0.1,0c0,0,0-0.1,0-0.1
					c0,0,0-14.4,0-14.5c1.2-0.1,2.5-0.3,3.7-0.6c3.3-0.8,6.1-1.9,8.6-3.4c-0.1,0.4-1.2,7.7-1.2,7.7c0,0,0,0,0,0c0,0,0,0,0,0.1
					c0,0,0,0,0.1,0l16.5,2.6c0,0,0.1,0,0.1,0c0,0,0,0,0-0.1c0,0,0.8-5.1,0.9-5.6c0.3,0.5,4.2,7.7,4.2,7.7c0,0,0,0,0.1,0
					c0,0,0.1,0,0.1-0.1c0,0,2.2-4.3,2.5-4.8c0.1,0.6,0.9,8,0.9,8c0,0,0,0.1,0.1,0.1l18.7,3.3c0,0,0.1,0,0.1,0c0,0,0,0,0-0.1
					c0,0,0,0,0,0c0,0-0.9-5.9-1-6.2c2.6,0.3,5.2-0.1,7.8-1c0,0,1.2-0.6,1.7-0.7c0,0.3-0.7,6.5-0.7,6.5c0,0,0,0.1,0.1,0.1
					c0,0,12.2,1.7,12.3,1.7c0,0.2,0.1,5,0.1,5c0,0,0,0.1,0.1,0.1l12.9,4.1c0.1,0,0.1,0,0.1-0.1L226.6,28.6
					C226.6,28.7,226.6,28.6,226.6,28.6z M125,5.9c0.1,0.2,4.2,5.8,4.4,6c-0.2,0.1-12.6,6.2-12.7,6.3c-0.1-0.1-0.7-1.1-0.8-1.2
					C115.9,16.9,124.9,6.1,125,5.9z M39.3,53.1C39.3,53.1,39.3,53.1,39.3,53.1c0,0.1,0,0.1,0,0.1c0,0,5.1,19.5,5.1,19.7
					c-0.2,0.1-8,2.6-8.2,2.6c-0.1-0.2-17.1-38.2-17.1-38.2c0,0,0,0-0.1-0.1c0,0-0.1,0-0.1,0l-2.7,1.3c0,0-1.3,0.6-1.4,0.7
					c-0.1-0.1-6-10.2-6.1-10.3c2.4-1.5,5.1-2.9,8-4.1c7.7-3.3,15.5-4.5,21.9-3.4c2.5,0.3,4.7,1,6.5,2.2c2.8,1.6,4.9,3.8,6.1,6.6
					c0.6,1.4,0.9,2.8,0.9,4.3C52,40.9,47.2,48.2,39.3,53.1z M74.7,58c-1.8,2.5-4.2,4.4-6.9,5.6c-3.7,1.6-7.5,1.6-10.6,0.1
					c-2.8-1.3-4.8-3.8-5.7-6.9c-1.9-6.6,2.4-14.4,9.4-17.5c4.3-1.8,8.8-1.5,12.1,0.7c2,1.4,3.5,3.4,4.2,5.9l0.2,0.8
					c0.2,1,0.3,1.9,0.3,2.9C77.6,52.5,76.5,55.4,74.7,58z M117.1,63.5c-0.3-0.1-30.2-15.1-30.2-15.1c0,0-0.1,0-0.1,0c0,0,0,0,0,0.1
					c0,0,0.1,15.6,0.1,15.8c-0.2,0-7.5,1-7.7,1c0-0.2-0.5-6.5-0.5-6.5c1.7-2.9,2.6-6.2,2.6-9.3c0-1.4-0.2-2.9-0.6-4.2
					c-0.7-2.4-2-4.6-3.7-6.4c0,0,0,0,0,0c0-0.3-1.1-13.3-1.1-13.3c0,0,0-0.1,0-0.1c0,0-0.1,0-0.1,0c0,0-3.2,0.8-3.4,0.9
					c0-0.2-0.1-3-0.1-3.2c0.1,0,12.2-3.6,12.4-3.7c0,0.2,0.8,12.9,0.8,12.9c0,0,0,0.1,0.1,0.1c0,0,0.1,0,0.1,0
					c0,0,9.1-12.8,9.2-12.9c0.2,0.2,8.8,8.4,8.9,8.5C103.5,28.2,91,41.3,91,41.3c0,0,0,0,0,0.1c0,0,0,0,0,0c0,0,0,0.1,0.1,0.1
					l11.9,4.7c1.3,2.5,3.4,4.7,5.9,6.2c2.4,1.5,5.2,2.4,8.2,2.7C117.1,55.3,117.1,63.2,117.1,63.5z M101.3,41.5
					c-0.3-0.1-3.7-1.4-3.9-1.5c0.2-0.2,3.3-3.2,3.6-3.5c0,0.5-0.1,1-0.1,1.5C101,39.1,101.1,40.3,101.3,41.5z M134.4,45.6
					c-2.9,2.4-6.2,4-10.6,5c-0.9,0.2-1.9,0.4-2.8,0.5c-6.8,0.7-12.6-2.3-14.9-7.6c-0.3-0.6-0.5-1.3-0.6-1.9c-1-4.1-0.3-8,2-11.2
					c0.6-0.9,1.3-1.7,2.2-2.4c2-1.8,4.6-3.1,7.5-3.8c6.3-1.5,12.2,0.3,15.9,4.7c-0.1,0.1-12.6,13.4-12.6,13.4c0,0,0,0,0,0.1
					c0,0,0,0,0,0c0,0,0,0.1,0.1,0.1c1,0.2,2.6-0.2,3.3-0.3c2.8-0.7,4.5-2.1,6.1-4c0.1,0.1,6.1,5.5,6.4,5.8
					C135.7,44.4,135,45,134.4,45.6z M135.7,37.3c-0.2-0.2-2.4-2.1-2.5-2.2c0.1-0.1,2.8-3,2.8-3s0.4-0.4,0.7-0.7
					C136.6,31.9,135.8,36.9,135.7,37.3z M161.3,63.5c0-0.1-2.7-18.1-2.7-18.1c0,0,0-0.1-0.1-0.1c0,0-0.1,0-0.1,0.1
					c0,0-3.6,9.4-3.8,9.8c-0.2-0.4-5.7-12.3-5.7-12.3c0,0-0.1-0.1-0.1-0.1c0,0-0.1,0-0.1,0.1c0,0-2.3,14.2-2.3,14.4
					c-0.2,0-9.3-1.6-9.5-1.6c0-0.2,1.3-8,1.3-8c0,0,1.1-1,1.1-1l3.1-3.2c0,0,0,0,0-0.1v0c0,0,0-0.1,0-0.1c0,0-2.9-2.6-3-2.7
					c0-0.1,3.2-19,3.2-19.2c0.2,0,9.5,0,9.6,0c0,0.2,2.4,13.3,2.4,13.3c0,0,0.1,0.1,0.1,0.1c0,0,0.1,0,0.1-0.1
					c0,0,2.7-15.2,2.7-15.4c0.2,0,6.7,0,6.8,0c0,0.2,2.9,18.7,2.9,18.7c-3,3.4-4.6,7.6-4.6,11.7c0,1.1,0.1,2.3,0.4,3.4
					c1,4,3.4,7.3,7,9.2c0,0,0.9,0.4,1.1,0.5c0,0.1,0.3,2,0.3,2.3C171.1,65,161.4,63.5,161.3,63.5z M175.2,63.8
					C175.2,63.8,175.2,63.8,175.2,63.8C175.2,63.8,175.2,63.8,175.2,63.8z M185.3,57.6c-1.1,0.8-2.3,1.4-3.5,1.9
					c-2.4,0.9-4.9,1.1-7.1,0.7c-1.5-0.3-2.9-0.9-4.1-1.8c-2-1.4-3.4-3.5-4-6c-0.7-3-0.1-6.3,1.6-9.3c0.8-1.5,1.9-2.8,3.2-3.9
					c1.5-1.3,3.1-2.3,4.9-3c4-1.5,8.3-1.1,11.4,1.1c1.1,0.8,2,1.7,2.7,2.9c0.5,0.9,1,1.9,1.2,3c0.2,0.9,0.3,1.8,0.3,2.7
					c0,2.8-1,5.7-2.9,8.3C187.9,55.3,186.7,56.6,185.3,57.6z M207.1,74.7c-0.2-0.1-6.9-2.1-7-2.1c0-0.1-0.6-26.3-0.6-26.3
					c0,0,0-0.1-0.1-0.1c0,0-0.1,0-0.1,0.1c0,0-3.5,20.1-3.6,20.3c-0.2,0-7.5-1.2-7.6-1.2c0-0.2,0.5-5.8,0.5-5.8
					c4.3-3.6,6.7-8.8,6.7-13.8c0-1.2-0.1-2.4-0.4-3.5c-0.7-2.7-2-5.1-4-6.9c0-0.1,0.6-6.9,0.6-6.9c0,0,0-0.1-0.1-0.1
					c0,0-2.7-0.7-2.9-0.8c0-0.1,0.2-3.3,0.2-3.5c0.2,0,13.2,2.7,13.3,2.7c0,0.1,4.5,21.4,4.5,21.4c0,0,0,0.1,0.1,0.1
					c0,0,0.1,0,0.1-0.1c0,0,4.6-19,4.6-19.2c0.2,0,9.8,2.2,10.1,2.2C221.4,31.4,207.2,74.5,207.1,74.7z"/>
				<path class="st32" d="M33.2,33.9c-0.1,0-0.1,0.1-0.1,0.2l1.4,4.6c0,0,3.1,10,3.1,10c0,0.1,0.1,0.1,0.1,0.1c0.1,0,0.1,0,0.2,0
					c4.1-2.6,8-5.7,6.9-11.4c-0.3-1.8-1.5-3.3-3.3-4.1C39.1,32.2,36,32.4,33.2,33.9z M40,36.4c0.5,0.2,1.3,0.7,1.4,1.7
					c0.1,0.4,0.1,0.8,0.1,1.1c0,1.5-0.7,2.8-2.1,4.1c-0.2-0.6-1.7-5.6-1.7-5.6c0,0-0.4-1.4-0.5-1.7C38.3,35.9,39.3,36,40,36.4z"/>
				<path class="st32" d="M119,29c-2,0.1-3.8,0.9-5.1,2.4c-1.3,1.4-1.9,3.1-1.9,5c0,0.1,0,0.2,0,0.3c0.1,2,0.9,3.8,2.4,5.1l0.8,0.6
					c0.1,0.1,0.2,0,0.2,0l9.5-10.7c0.1-0.1,0.1-0.2,0-0.2l-0.5-0.5C122.8,29.6,121,28.9,119,29z M114.8,36.3c0-1.1,0.4-2.2,1.2-3
					l0,0c1.2-1.3,3-1.7,4.6-1.2c-0.4,0.4-4.9,5.6-5.3,6.1C115,37.6,114.8,37,114.8,36.3z"/>
				<path class="st32" d="M174.9,39.4c-1.2,1.1-1.9,2.6-2,4.2l0,0c-0.1,3.6,2.7,6.6,6.6,6.8c3.9,0.2,7-2.6,7.2-6.2
					c0-1.2-0.3-2.4-1-3.5c0-0.1-0.1-0.1-0.2-0.1c-0.1,0-0.1,0.1-0.1,0.2l0.1,0.9c-0.1,1.9-1.9,3.4-4,3.3c-1.1,0-2.2-0.5-2.9-1.3
					c-0.6-0.7-0.9-1.5-0.9-2.3c0.1-1.8,1.6-3.2,3.6-3.3c0.1,0,0.2-0.1,0.2-0.2c0-0.1-0.1-0.2-0.2-0.2l-1.3-0.2
					C178.1,37.4,176.3,38.1,174.9,39.4z"/>
				<path class="st32" d="M58.9,47.1c0,3.6,3,6.5,6.9,6.5c3.9,0,6.9-2.9,6.9-6.5c0-1.2-0.4-2.4-1.1-3.5c0-0.1-0.1-0.1-0.2,0
					c-0.1,0-0.1,0.1-0.1,0.2l0.1,0.9c0,1.9-1.7,3.4-3.9,3.4c-2.1,0-3.9-1.5-3.9-3.4c0-1.8,1.5-3.2,3.5-3.4c0.1,0,0.2-0.1,0.2-0.2
					c0-0.1-0.1-0.2-0.2-0.2l-1.3-0.1C62,40.8,58.9,43.7,58.9,47.1z"/>
			</g>
			<g>
				<linearGradient id="SVGID_29_" gradientUnits="userSpaceOnUse" x1="115.3629" y1="81.8769" x2="114.4874" y2="-1.1566">
					<stop  offset="0" style="stop-color:#334E9F"/>
					<stop  offset="1" style="stop-color:#1F6EB7"/>
				</linearGradient>
				<path class="st33" d="M209,24.5c0,0.2-1.6,6.8-1.6,6.8c0,0-0.1,0.1-0.1,0.1c0,0-0.1,0-0.1-0.1c0,0-1.5-7.4-1.5-7.6
					c-0.1,0-20.2-4.4-20.5-4.5c0,0.2,0.1,11.1,0.1,11.3c0.1,0,3,0.7,3,0.7c0,0,0.1,0,0.1,0.1c0,0-0.2,2.1-0.2,2.1c0,0,0,0.1,0,0.1
					c0,0-0.1,0-0.1,0c0,0,0,0-0.1-0.1c-3.8-2-8.6-2.2-13.1-0.5c-1.5,0.6-2.9,1.3-4.2,2.2c0,0-0.1,0-0.1,0c0,0-0.1,0-0.1-0.1
					c0,0-3.1-19.4-3.1-19.6c-0.2,0-13.4,0-13.6,0c0,0.2-0.4,2.2-0.4,2.2c0,0-0.1,0.1-0.1,0.1c0,0-14.2,0-14.4,0c0,0.2-1.6,10-1.6,10
					c0,0,0,0.1-0.1,0.1c0,0-0.1,0-0.1,0l-1.2-1.5c-3.4-4.2-8.5-6.6-14.1-6.8c0,0-0.1,0-0.1-0.1c0,0,0,0,0,0c0,0,0-0.1,0.1-0.1
					c0,0,12-6.4,12.2-6.5c-0.1-0.2-8.3-12.4-8.4-12.6c-0.2,0.2-15.2,17.5-15.3,17.7c0.1,0.1,2.6,3.2,2.6,3.2c0,0,0,0,0,0.1
					c0,0,0,0,0,0c0,0,0,0.1-0.1,0.1c-2.4,1-4.5,2.3-6.2,4c0,0-0.1,0-0.1,0c0,0-13-11.5-13.2-11.7c-0.1,0.2-4.6,8.8-4.6,8.8
					c0,0-0.1,0.1-0.1,0c0,0-0.1,0-0.1-0.1c0,0,0.2-8.1,0.2-8.4c-0.3,0.1-20.4,6.5-20.5,6.5c0,0.1,0.5,10.7,0.5,10.9
					c0.2-0.1,3.4-0.9,3.4-0.9c0,0,0.1,0,0.1,0c0,0,0,0,0,0.1l0.5,5.7c0,0,0,0.1,0,0.1c0,0-0.1,0-0.1,0c-4-1.8-8.8-1.7-13.3,0.1
					c-1.3,0.6-2.5,1.3-3.7,2.1c0,0-0.1,0-0.1,0c0,0-0.1-0.1,0-0.1c0.8-3.5,0.5-6.9-0.7-9.8c-1.5-3.5-4.2-6.5-7.6-8.3
					c-2.3-1.5-5.1-2.5-8-2.8c-7.1-1.3-15.7,0-24.2,3.6c-3.1,1.3-6,2.8-8.6,4.5c0,0-3.1,2-3.2,2.1c0.2,0.4,8.2,13.8,8.2,13.8
					s1.8,3,1.9,3.1c0.4-0.2,3.8-1.8,3.8-1.8c0,0,0,0,0.1,0c0,0,0,0,0.1,0.1c0,0,16.8,37.5,16.9,37.7c0.4-0.1,15.1-4.8,15.3-4.9
					c0-0.2-5.4-20.7-5.4-20.7c0,0,0,0,0,0c0,0,0-0.1,0-0.1c1.3-0.9,2.4-1.9,3.6-3c0,0,0.1,0,0.1,0c0,0,0.1,0.1,0,0.1
					c-0.2,2.1-0.1,4.1,0.4,6c1.2,4.1,3.8,7.3,7.6,9.1c4,1.9,8.9,1.9,13.5,0c2.2-0.9,4.3-2.3,6-4.1c0,0,0.1,0,0.1,0
					c0,0,0.1,0,0.1,0.1c0,0,0.6,6.5,0.6,6.7c0.2,0,14.3-2.1,14.4-2.1c0-0.2,0-13,0-13c0,0,0-0.1,0-0.1c0,0,0.1,0,0.1,0
					c0,0,30.1,14.9,30.4,15c0-0.3,0-14.5,0-14.5c0,0,0-0.1,0.1-0.1c1.3-0.1,2.5-0.3,3.7-0.6c3.4-0.8,6.2-1.9,8.8-3.5
					c0,0,0.1,0,0.1,0c0,0,0,0,0,0.1c0,0,0,0,0,0c0,0-1.2,7.6-1.3,7.8c0.2,0,16.1,2.5,16.3,2.6c0-0.2,0.9-5.8,0.9-5.8
					c0,0,0-0.1,0.1-0.1c0,0,0.1,0,0.1,0.1c0,0,4,7.5,4.2,7.8c0.2-0.3,2.5-4.9,2.5-4.9c0,0,0.1-0.1,0.1,0c0,0,0.1,0,0.1,0.1
					c0,0,0.9,8.1,1,8.2c0.1,0,18.2,3.2,18.5,3.3c0-0.3-1-6.1-1-6.1c0,0,0,0,0,0c0,0,0,0,0-0.1c0,0,0.1,0,0.1,0
					c2.6,0.3,5.3-0.1,7.8-1l1.8-0.8c0,0,0.1,0,0.1,0c0,0,0,0,0,0.1c0,0-0.7,6.4-0.7,6.6c0.2,0,12.3,1.7,12.3,1.7c0,0,0.1,0,0.1,0.1
					c0,0,0.1,4.9,0.1,5c0.1,0,12.6,4,12.8,4c0.1-0.2,16.7-50.5,16.8-50.7C226.1,28.7,209.2,24.6,209,24.5z M136.7,31
					c0,0,0.1,0,0.1,0c0,0,0.1,0.1,0.1,0.1l-1,6.4c0,0,0,0.1-0.1,0.1c0,0-0.1,0-0.1,0l-2.7-2.4c0,0,0,0,0-0.1c0,0,0-0.1,0-0.1
					L136.7,31z M115.6,16.9l9.3-11.2c0,0,0,0,0.1,0c0,0,0.1,0,0.1,0l4.5,6.1c0,0,0,0.1,0,0.1c0,0,0,0.1,0,0.1l-12.9,6.4
					c0,0-0.1,0-0.1,0l-0.9-1.4C115.6,17,115.6,16.9,115.6,16.9z M39.5,53.2c0,0.1,5.1,19.7,5.1,19.7c0,0,0,0,0,0c0,0,0,0.1-0.1,0.1
					l-8.3,2.7c0,0-0.1,0-0.1,0c0,0-17-38-17.1-38.2c-0.2,0.1-2.6,1.3-2.6,1.3l-1.5,0.7c0,0-0.1,0-0.1,0L8.5,29c0,0,0-0.1,0-0.1
					c2.4-1.6,5.2-3,8.1-4.2c7.8-3.3,15.6-4.5,22-3.4c2.5,0.3,4.7,1,6.5,2.2c2.9,1.6,5,3.9,6.2,6.7c0.6,1.4,0.9,2.9,0.9,4.4
					C52.2,41,47.4,48.3,39.5,53.2z M74.9,58.1c-1.8,2.5-4.2,4.5-7,5.7c-3.7,1.6-7.6,1.6-10.8,0.1c-2.8-1.4-4.9-3.8-5.8-7
					c-1.9-6.7,2.4-14.6,9.6-17.7c4.3-1.8,8.9-1.5,12.3,0.8c2.1,1.4,3.6,3.5,4.3,6l0.2,0.8c0.2,1,0.3,2,0.3,3
					C77.8,52.5,76.7,55.5,74.9,58.1z M117.3,63.6C117.3,63.7,117.3,63.7,117.3,63.6c-0.1,0.1-0.1,0.1-0.1,0.1
					c0,0-29.9-14.9-30.2-15.1c0,0.3,0.1,15.7,0.1,15.7c0,0.1,0,0.1-0.1,0.1l-7.8,1.1c0,0-0.1,0-0.1,0c0,0,0,0,0-0.1
					c0,0-0.5-6.4-0.5-6.6v0c1.7-2.9,2.6-6.1,2.6-9.3c0-1.4-0.2-2.8-0.6-4.2c-0.7-2.4-2-4.6-3.7-6.3c0,0-1.1-13-1.1-13.2
					c-0.2,0.1-3.4,0.9-3.4,0.9c0,0-0.1,0-0.1,0c0,0,0,0,0-0.1L72,23.2c0,0,0-0.1,0.1-0.1l12.6-3.7c0,0,0.1,0,0.1,0c0,0,0,0,0,0.1
					c0,0,0.7,12.2,0.8,12.7c0.3-0.4,9.1-12.8,9.1-12.8c0,0,0,0,0.1,0c0,0,0.1,0,0.1,0l9.1,8.6c0,0,0,0,0,0.1c0,0,0,0,0,0.1
					c0,0-12.4,13-12.6,13.3c1.3,0.5,11.8,4.7,11.8,4.7c1.3,2.5,3.4,4.7,5.9,6.2c2.4,1.5,5.2,2.4,8.2,2.7c0,0,0.1,0,0.1,0.1V63.6z
					 M101.6,41.6c0,0,0,0.1,0,0.1c0,0-0.1,0-0.1,0l-4.2-1.6c0,0-0.1,0-0.1-0.1c0,0,0-0.1,0-0.1l3.9-3.8c0,0,0.1,0,0.1,0
					c0,0,0.1,0.1,0.1,0.1C101.1,38,101.2,39.8,101.6,41.6z M136.6,43.8c-0.7,0.7-1.4,1.3-2.1,1.9c-2.9,2.4-6.2,4-10.6,5
					c-0.9,0.2-1.9,0.4-2.8,0.5c-6.9,0.7-12.8-2.4-15.1-7.8c-0.3-0.6-0.5-1.3-0.6-1.9c-1-4.2-0.3-8.1,2-11.4c0.6-0.9,1.4-1.7,2.2-2.4
					c2-1.8,4.7-3.2,7.6-3.9c6.4-1.5,12.4,0.3,16.1,4.8c0,0,0,0,0,0.1c0,0,0,0,0,0.1c0,0-12.2,13-12.5,13.3c1,0.1,2.4-0.2,3-0.3
					c2.8-0.7,4.5-2.1,6.1-4c0,0,0,0,0.1,0c0,0,0.1,0,0.1,0l6.6,5.9C136.6,43.7,136.6,43.7,136.6,43.8
					C136.6,43.7,136.6,43.8,136.6,43.8z M171.6,65.2C171.6,65.2,171.5,65.2,171.6,65.2l-10.4-1.5c0,0-0.1,0-0.1-0.1
					c0,0-2.6-17.1-2.7-17.8c-0.2,0.6-3.7,9.7-3.7,9.7c0,0,0,0.1-0.1,0.1c0,0-0.1,0-0.1-0.1c0,0-5.6-12-5.7-12.3
					c-0.1,0.4-2.3,14.3-2.3,14.3c0,0,0,0.1,0,0.1c0,0,0,0-0.1,0l-9.7-1.7c-0.1,0-0.1,0-0.1-0.1c0,0,0,0,0,0c0,0,1.4-8.1,1.4-8.2
					l1.1-1.1c0,0,2.9-3,3.1-3.2c-0.1-0.1-3-2.7-3-2.7c0,0,0,0,0-0.1c0,0,0,0,0,0l3.2-19.3c0,0,0-0.1,0.1-0.1h9.8c0,0,0.1,0,0.1,0.1
					c0,0,2.2,11.8,2.3,12.8c0.2-1,2.6-14.9,2.6-14.9c0,0,0.1-0.1,0.1-0.1h7c0,0,0.1,0,0.1,0.1l2.9,18.9c0,0,0,0.1,0,0.1
					c-3.8,4.4-5.4,10-4.2,14.9c1,4,3.4,7.2,6.9,9.1l1.1,0.5c0,0,0,0,0.1,0.1L171.6,65.2C171.6,65.1,171.6,65.2,171.6,65.2z
					 M185.4,57.7c-1.1,0.8-2.3,1.4-3.5,1.9c-2.4,0.9-4.9,1.2-7.2,0.7c-1.6-0.3-3-0.9-4.2-1.8c-2-1.5-3.4-3.6-4-6.1
					c-0.7-3-0.1-6.4,1.6-9.5c0.8-1.5,1.9-2.8,3.2-4c1.5-1.3,3.1-2.4,4.9-3c4.1-1.5,8.4-1.1,11.5,1.1c1.1,0.8,2,1.8,2.7,2.9
					c0.6,0.9,1,1.9,1.2,3c0.9,3.6-0.1,7.7-2.6,11.1C188.1,55.5,186.8,56.7,185.4,57.7z M207.3,74.8c0,0-0.1,0.1-0.1,0.1l-7.2-2.1
					c0,0-0.1,0-0.1-0.1c0,0-0.6-23.6-0.6-25.4c-0.3,1.7-3.4,19.4-3.4,19.4c0,0-0.1,0.1-0.1,0.1l-7.8-1.2c-0.1,0-0.1,0-0.1-0.1
					c0,0,0,0,0,0c0,0,0.6-5.9,0.6-5.9c4.3-3.6,6.7-8.7,6.7-13.7c0-1.2-0.1-2.3-0.4-3.5c-0.6-2.7-2-5.1-4-6.9c0,0,0,0,0-0.1
					c0,0,0.6-6.7,0.7-6.8c-0.2,0-2.9-0.8-2.9-0.8c0,0-0.1,0-0.1-0.1c0,0,0.2-3.7,0.2-3.7c0,0,0-0.1,0-0.1c0,0,0,0,0.1,0l13.5,2.7
					c0,0,0.1,0,0.1,0.1c0,0,4.3,20.2,4.4,21c0.2-0.8,4.5-18.8,4.5-18.8c0,0,0.1-0.1,0.1-0.1l10.2,2.3c0,0,0,0,0.1,0c0,0,0,0.1,0,0.1
					L207.3,74.8z"/>
				<linearGradient id="SVGID_30_" gradientUnits="userSpaceOnUse" x1="39.4299" y1="70.0875" x2="38.6974" y2="0.6196">
					<stop  offset="0" style="stop-color:#334E9F"/>
					<stop  offset="1" style="stop-color:#1F6EB7"/>
				</linearGradient>
				<path class="st34" d="M44.7,37.5c-0.8-4.1-6.1-6.3-11.3-3.4l1.4,4.6l2.1,6.9l1,3.1C41.7,46.1,45.7,43.1,44.7,37.5z M39.4,43.7
					c-0.6-1.9-1.8-5.9-1.8-5.9c0,0-0.3-0.9-0.5-1.9c1.1-0.2,2.2-0.1,3.1,0.3c0.5,0.2,1.3,0.8,1.5,1.8C42.1,40.4,41.3,42,39.4,43.7z"
					/>
				<linearGradient id="SVGID_31_" gradientUnits="userSpaceOnUse" x1="118.7325" y1="65.6464" x2="118.0311" y2="-0.8744">
					<stop  offset="0" style="stop-color:#334E9F"/>
					<stop  offset="1" style="stop-color:#1F6EB7"/>
				</linearGradient>
				<path class="st35" d="M124.2,31c-2.9-2.7-7.5-2.5-10.2,0.5c-2.7,2.9-2.5,7.5,0.5,10.2c0.2,0.2,0.5,0.4,0.8,0.6l9.5-10.7
					C124.5,31.4,124.4,31.2,124.2,31z M115.2,38.6c-0.9-1.7-0.7-3.9,0.6-5.4c1.3-1.5,3.4-1.9,5.1-1.2L115.2,38.6z"/>
				
					<linearGradient id="SVGID_32_" gradientUnits="userSpaceOnUse" x1="-3155.8875" y1="-3283.2004" x2="-3156.0994" y2="-3303.301" gradientTransform="matrix(0.7382 0 0 0.7382 2509.5498 2475.127)">
					<stop  offset="0" style="stop-color:#334E9F"/>
					<stop  offset="1" style="stop-color:#1F6EB7"/>
				</linearGradient>
				<path class="st36" d="M185.5,40.7c0.1,0.3,0.1,0.6,0.1,1c-0.1,2-2,3.5-4.2,3.5c-2.3-0.1-4-1.8-3.9-3.8c0.1-1.9,1.7-3.4,3.8-3.5
					c-0.4-0.1-0.8-0.1-1.2-0.2c-3.8-0.2-6.8,2.5-7,5.8c-0.1,3.5,2.7,6.4,6.4,6.6c3.8,0.2,6.8-2.5,7-6
					C186.5,42.9,186.2,41.7,185.5,40.7z"/>
				
					<linearGradient id="SVGID_33_" gradientUnits="userSpaceOnUse" x1="-3310.4033" y1="-3278.9109" x2="-3310.6108" y2="-3298.604" gradientTransform="matrix(0.7382 0 0 0.7382 2509.5498 2475.127)">
					<stop  offset="0" style="stop-color:#334E9F"/>
					<stop  offset="1" style="stop-color:#1F6EB7"/>
				</linearGradient>
				<path class="st37" d="M71.5,44.7c0,2-1.8,3.6-4.1,3.6c-2.2,0-4.1-1.6-4.1-3.6c0-1.9,1.6-3.4,3.7-3.6c-0.4-0.1-0.8-0.1-1.2-0.1
					C62,41,59,43.8,59,47.1c0,3.5,3,6.3,6.7,6.3c3.8,0,6.7-2.8,6.7-6.3c0-1.2-0.4-2.4-1.1-3.3C71.4,44.1,71.5,44.4,71.5,44.7z"/>
			</g>
		</g>
	</g>
	<g>
		<g>
			<path d="M216.6,76.5h-1v3h-0.8v-3h-1v-0.7h2.8V76.5z M220.9,79.5h-0.7v-3h0l-1,3h-0.4l-1-3h0v3H217v-3.7h1.2l0.8,2.2l0.8-2.2h1.2
				V79.5z"/>
		</g>
	</g>
</g>
</svg>
